inDegrees=no
num_controls=7
num_derivatives=13
num_iterations=102
num_multipliers=7
num_parameters=0
num_slacks=7
num_states=26
objective=0.497396
objective_accelerations=0.032256
objective_balance=0.003297
objective_effort=0.034923
objective_height=0.421439
objective_ligament=0.005481
solver_duration=1124.540160
status=Solve_Succeeded
success=true
DataType=double
version=3
OpenSimVersion=4.5
endheader
time	/jointset/ground_pelvis/pelvis_tilt/value	/jointset/ground_pelvis/pelvis_tx/value	/jointset/ground_pelvis/pelvis_ty/value	/jointset/hip_r/hip_flexion_r/value	/jointset/hip_r/hip_adduction_r/value	/jointset/hip_r/hip_rotation_r/value	/jointset/back/lumbar_extension/value	/jointset/patellofemoral_r/patellar_flexion_r/value	/jointset/knee_r/knee_flexion_r/value	/jointset/knee_r/knee_adduction_r/value	/jointset/knee_r/knee_rotation_r/value	/jointset/ankle_r/ankle_angle_r/value	/jointset/subtalar_r/subtalar_angle_r/value	/jointset/ground_pelvis/pelvis_tilt/speed	/jointset/ground_pelvis/pelvis_tx/speed	/jointset/ground_pelvis/pelvis_ty/speed	/jointset/hip_r/hip_flexion_r/speed	/jointset/hip_r/hip_adduction_r/speed	/jointset/hip_r/hip_rotation_r/speed	/jointset/back/lumbar_extension/speed	/jointset/patellofemoral_r/patellar_flexion_r/speed	/jointset/knee_r/knee_flexion_r/speed	/jointset/knee_r/knee_adduction_r/speed	/jointset/knee_r/knee_rotation_r/speed	/jointset/ankle_r/ankle_angle_r/speed	/jointset/subtalar_r/subtalar_angle_r/speed	/forceset/tau_hip_flexion_r	/forceset/tau_hip_adduction_r	/forceset/tau_hip_rotation_r	/forceset/tau_knee_flexion_r	/forceset/tau_ankle_angle_r	/forceset/tau_subtalar_angle_r	/forceset/tau_lumbar_extension	lambda_cid13_p0	lambda_cid14_p0	lambda_cid14_p1	lambda_cid14_p2	lambda_cid14_p3	lambda_cid14_p4	lambda_cid14_p5	/jointset/ground_pelvis/pelvis_tilt/accel	/jointset/ground_pelvis/pelvis_tx/accel	/jointset/ground_pelvis/pelvis_ty/accel	/jointset/hip_r/hip_flexion_r/accel	/jointset/hip_r/hip_adduction_r/accel	/jointset/hip_r/hip_rotation_r/accel	/jointset/back/lumbar_extension/accel	/jointset/patellofemoral_r/patellar_flexion_r/accel	/jointset/knee_r/knee_flexion_r/accel	/jointset/knee_r/knee_adduction_r/accel	/jointset/knee_r/knee_rotation_r/accel	/jointset/ankle_r/ankle_angle_r/accel	/jointset/subtalar_r/subtalar_angle_r/accel	gamma_cid13_p0	gamma_cid14_p0	gamma_cid14_p1	gamma_cid14_p2	gamma_cid14_p3	gamma_cid14_p4	gamma_cid14_p5
0.5	-0.09511927063938592	0.05249213185003915	0.8644874260369225	0.6869955253610462	-0.2299612299632297	-0.1339517351698447	-0.3143213078184741	0.6843067173049248	0.684306717304982	0.04158564983198341	0.1744065884929428	0.2632706243786945	0.05676882061808949	-0.2538637843918425	-0.09151714047862701	-0.3254872800611856	1.400955098057118	-0.008861144187392709	0.2579074563667478	-0.6121438195090563	1.670329023906973	1.670329023907438	-0.2787159402129826	-0.0001250795947797225	0.6127031661715512	0.1632422417276009	-0.071710693628133	-0.0190157481904995	0.008129468777299465	-0.3408607701563155	0.06490150381762799	-0.0108663832154581	0.1323527345323542	-32.21867503147451	-21.36235735174	-4.563638179583728	-3.262662017473985	3.294725811125309	-669.7964485969793	59.73694470160447	0.07112494250819798	0.2765945921862578	-0.3544877135581401	-0.8488058137909631	-0.05592082254414422	-0.5384482588110227	1.267270602093557	-1.11223448606305	-1.112234486063009	0.4030234674261317	-0.0034918321937867	-0.4653019752787676	-0.06771021845203555	-1.110101156465834e-07	-1.604597457549355e-07	5.376586844675461e-07	-1.259250217315147e-06	4.136395141701308e-08	-2.210144109150016e-07	8.587865150917371e-07
0.51	-0.09765398264099685	0.05159094873240372	0.8612155862849228	0.7009603166812615	-0.230053342549123	-0.1313986475517319	-0.3203784594612158	0.7009516678192206	0.7009516678193277	0.03882089348723745	0.1744051641191596	0.2693732190268004	0.05839653086020073	-0.2530481087161292	-0.0887056269958614	-0.3288033778048337	1.391798285915148	-0.009559604061803693	0.2527017734013759	-0.5991890081597327	1.658404894896514	1.658404894896473	-0.2742139316924551	-0.0001593020537977665	0.6077274275848862	0.1622726451055312	-0.0770072698172896	-0.01723075647326619	0.008790333020622463	-0.343822540580738	0.06078366691260458	-0.01026840884157717	0.1372804657822497	-31.27212252928008	-22.83332850839527	-4.679003832185511	-3.110045052997071	3.836792448302309	-673.1361880991441	59.54907401715377	0.09135199269675924	0.2855175617588903	-0.3086210719440377	-0.9798684234080263	-0.07671032171881355	-0.5130577878899441	1.324211533256527	-1.270908379591144	-1.270908379667163	0.477003494946953	-0.003533320462917874	-0.5269692907152778	-0.1157290221921627	-9.469176456684348e-08	-1.227642949140951e-07	5.689305619857453e-07	-9.755438111000221e-07	1.49418981073343e-08	-1.779351096572269e-07	7.519521549390344e-07
0.52	-0.1001796252633325	0.05071829831668294	0.8579128955020512	0.7148273899782552	-0.2301524200841302	-0.1288979026577674	-0.3263031379640826	0.7174696957892073	0.7174696957893507	0.03610180001780476	0.1744033683472358	0.2754234043909685	0.06001371620846931	-0.2520499085366547	-0.08581060009569652	-0.3316574862354942	1.381411493412849	-0.01025413400938675	0.2474389115364192	-0.5856491915342023	1.644944515043903	1.644944515043355	-0.2695833651486937	-0.0001993592210997108	0.602221309384026	0.1611372629591532	-0.08230384600643637	-0.01544576475602358	0.009451197263850212	-0.3467843110051572	0.05666583000758392	-0.009670434467689549	0.1422081970321536	-30.31557251869666	-24.30886103448895	-4.792547704962425	-2.960712516916936	4.364929530729405	-676.5536677422964	59.42538929077234	0.1076298432604635	0.2932972756660772	-0.262089850960626	-1.094801885856822	-0.05513483717855687	-0.5498840387279756	1.384271657334959	-1.419484654493441	-1.419484654493576	0.4287350720728835	-0.00465877385056917	-0.5713778981178316	-0.1008673233137153	-7.04583810437844e-08	-4.772955164461931e-08	7.340878952621373e-07	-4.246783440552638e-07	-5.010768101749028e-08	-9.1459389373856e-08	6.139461510538852e-07
0.53	-0.1026944226863533	0.04987494990547238	0.8545839941275452	0.7285847237604144	-0.2302580812542468	-0.1264513027284055	-0.3320896292521113	0.7338456729882764	0.7338456729883664	0.03342821252808561	0.1744017902497479	0.2814160387150719	0.0616192246216485	-0.2508754266129311	-0.08285050221524101	-0.3340424202272614	1.369855057136616	-0.01088762170074051	0.2419283927013836	-0.5715730209233723	1.630006725228412	1.63000672522803	-0.2650621537020045	-0.0001444023100465618	0.596216649680699	0.1599192668478081	-0.0874758684563776	-0.01366677259313906	0.01013891787949587	-0.349817810689538	0.05259510254010008	-0.009236651644577754	0.1470086399528188	-29.35308422662552	-25.78193394882828	-4.990494358545164	-2.782474847944743	4.950286712047838	-679.9895139904894	59.17722344988239	0.1274784900065782	0.2986361788101259	-0.2146491151019278	-1.216096438051725	-0.06883937954109644	-0.5446085892012055	1.430696535159647	-1.567544529938412	-1.56754452991357	0.4747200562930421	0.006340708926653352	-0.6283669944950212	-0.1389256189673415	-4.460983583775568e-08	3.506594601460546e-08	9.3703802524725e-07	1.78913630919773e-07	-1.246803685434376e-07	1.833963675676011e-09	4.953462354712171e-07
0.54	-0.1051964510655296	0.04906145649998094	0.8512336526247581	0.7422204867918939	-0.2303703540301893	-0.1240584025440364	-0.3377330774795905	0.7500649486122021	0.7500649486122704	0.03080201832790167	0.1743999152784633	0.2873459550445308	0.06321122110092915	-0.2494960997660655	-0.07983959895187326	-0.3359455118916888	1.357097343278573	-0.01157645516916813	0.2366989625339452	-0.5570405794244214	1.613604200018464	1.613604200018249	-0.2601047072422598	-0.0002587339852613861	0.589677710455177	0.1584348761795662	-0.09264789090630658	-0.01188778043026155	0.01082663849533334	-0.352851310373903	0.04852437507262916	-0.008802868821439363	0.1518090828734908	-28.38536206385838	-27.26083359991807	-5.188983818189157	-2.604695544175113	5.53332195148626	-683.5151869706224	58.95723007623591	0.1485988278889099	0.3034583522484996	-0.1657213854926741	-1.335057402218603	-0.06620399259327535	-0.4936663052084835	1.475525834959118	-1.712431733384551	-1.71243173338453	0.5159820746839602	-0.0385164911041589	-0.6782338025568599	-0.1541462346930637	-1.697430323780305e-08	1.264478102327015e-07	1.181801462229246e-06	8.40841316796395e-07	-2.09789261108925e-07	1.026702295728756e-07	3.982168856700175e-07
